# xmcd
#
# Track frame offsets: 
#        150
#        13943
#        30350
#        45630
#        62455
#        81941
#        100320
#        114334
#        133426
#        148561
#        167097
#        185561
#        205397
#        222907
#
# Disc length: 3177 seconds
#
# Revision: 2
# Processed by: cddbd v1.5.2PL0 Copyright (c) Steve Scherf et al.
# Submitted via: ExactAudioCopy v0.99pb5
#
DISCID=c90c670e
DTITLE=Jeremy Camp - Beyond Measure (Special Edition)
DYEAR=2007
DGENRE=Praise and Worship
TTITLE0=Tonight
TTITLE1=What It Means
TTITLE2=Beyond Measure
TTITLE3=Let It Fade
TTITLE4=Feels Like
TTITLE5=When You Are Near
TTITLE6=No Matter What
TTITLE7=Take A Little Time
TTITLE8=Everything
TTITLE9=I Am Nothing
TTITLE10=Give You Glory
TTITLE11=Give Me Jesus
TTITLE12=We Remember
TTITLE13=I Can't Begin
EXTD=
EXTT0=
EXTT1=
EXTT2=
EXTT3=
EXTT4=
EXTT5=
EXTT6=
EXTT7=
EXTT8=
EXTT9=
EXTT10=
EXTT11=
EXTT12=
EXTT13=
PLAYORDER=
